<?xml version='1.0' encoding='utf-8'?>
<svg xmlns="http://www.w3.org/2000/svg" enable-background="new 0 0 1059.9415 1047.8848" version="1.1" viewBox="0 0 1059.9415 1047.8848">
	<path d="m132.38 1047.9c-2.4191-3.5366-2.5225-7.563-2.0535-11.543 0.7838-6.6516-0.9261-12.465-4.7961-17.859-2.811-3.9172-5.3567-8.0289-7.9359-12.108-6.34-10.026-8.222-20.685-5.6689-32.441 4.0593-18.692 9.7502-36.916 15.024-55.259 3.4691-12.067 4.0458-24.354 4.4973-37.999-3.2178 3.116-4.5007 5.9536-5.9024 8.6171-6.4271 12.213-12.848 24.433-19.024 36.774-4.1095 8.2112-8.4244 16.258-14.362 23.312-5.5152 6.5522-6.0606 13.295-2.6386 21.274 4.1533 9.6838 5.9437 19.996 3.9352 30.65-0.806 4.2753-3.3168 7.5498-5.9015 10.826-6.5316 8.2782-15.256 14.344-22.294 22.111-0.7158 0.7898-1.6956 1.0508-2.715 0.5446-1.1834-0.5878-0.7551-1.4817-0.6232-2.5217 0.4464-3.5212 1.7897-6.6868 3.263-9.8598 8.0654-17.37 10.751-35.153 4.1545-53.692-6.5966-18.538-5.6608-36.453 4.1689-53.835 3.6686-6.487 6.3079-13.548 9.5847-20.266 10.743-22.025 11.351-44.677 4.9622-68.016-3.541-12.936-7.8871-25.832-6.5975-39.609 0.9802-10.471 3.918-20.53 6.5024-30.663 0.8513-3.3376 1.8876-6.6483 1.7568-10.192-0.4549 0.0358-0.8932-0.0648-1.0536 0.1021-16.143 16.79-28.502 35.545-30.512 59.555-0.2864 3.4213-0.4607 6.8177 2.3346 9.8068 1.9532 2.0885-0.0025 5.2365 0.7684 8.0389 0.4759 1.7302-2.3178 0.8289-3.3426-0.0891-16.202-14.512-20.503-18.604-17.06-42.12 3.4087-23.28 13.85-43.928 22.408-65.312 11.551-28.865 22.652-57.874 28.717-88.502 3.8256-19.319 5.1749-38.898 5.2687-58.557 0.1145-23.995-0.16-47.994 0.0924-71.987 0.2444-23.232 5.0636-45.855 9.9848-68.436 9.3778-43.03 24.539-83.909 47.048-121.78 22.164-37.291 54.114-63.863 94.008-80.41 20.732-8.5985 42.804-9.058 64.851-5.7838 12.369 1.8369 24.734 3.5599 37.252 3.0564 16.474-0.6627 31.581 3.4509 45.641 11.927 2.9584 1.7834 5.9572 3.6136 9.5148 4.2249 2.616 0.4495 4.2094 0.0369 4.1699-3.0497-0.1217-9.4893-0.1924-18.979-0.2552-28.469-0.0115-1.7382-0.9437-2.8551-2.3755-3.5004-7.4302-3.3488-11.565-9.8413-15.558-16.395-3.8046-6.2448-7.4241-12.607-10.937-19.021-0.7098-1.296-1.8541-3.0197-0.3323-4.6164 1.6223-1.7021 3.3932-0.7983 5.0485-0.0446 3.1171 1.4194 6.1918 2.9319 10.503 4.9864-1.2371-2.7754-1.9181-4.3564-2.6422-5.9173-1.6769-3.6149-3.6588-7.1178-5.0018-10.852-2.4255-6.7434 0.3393-9.9648 7.4276-8.8902 3.6056 0.5466 7.1417 1.5875 10.755 2.0385 5.7581 0.7187 7.691-0.5121 8.7283-6.2289 1.3622-7.5075 2.3573-15.092 3.2214-22.676 0.6431-5.6449 3.4412-9.3228 8.8707-10.72 5.429-1.3976 7.6781-5.0064 8.7703-10.232 1.5934-7.6237 2.4821-15.427 5.2526-22.783 2.575-6.8372 6.09-9.1995 12.592-6.1494 10.097 4.7365 17.662 1.9526 25.234-5.106 11.14-10.384 25.68-14.345 39.48-19.582 20.287-7.6981 41.223-14.054 62.78-15.093 35.502-1.7104 66.998 9.0892 89.307 38.381 12.957 17.013 25.486 34.619 32.246 55.385 3.8585 11.854 7.1819 23.875 9.5212 36.113 2.0773 10.868 5.7191 21.071 10.548 31.005 11.034 22.699 18.908 46.426 22.155 71.567 0.6804 5.2693 1.5443 10.515 2.3248 15.771 1.4393 9.6934 15.208 24.75 24.584 26.954 1.9722 0.4635 3.6693-0.1506 5.1819-1.193 1.7761-1.224 3.3262-2.7713 5.0663-4.0535 9.1617-6.7508 18.488-9.5921 29.559-3.5921 12.55 6.8017 22.704 15.443 28.614 28.763 3.7063 8.3535 7.4769 16.672 10.674 25.233 1.0208 2.7334 2.4886 5.5615 0.359 8.5647-0.3739 0.5273-0.2551 1.7469 0.0989 2.3936 3.17 5.7937 4.1932 12.434 7.8401 18.117 11.479 17.888 25.589 33.018 43.122 45.224 27.932 19.446 51.963 43.225 73.762 69.244 19.084 22.778 30.669 49.011 33.581 78.647 1.8263 18.589 0.5582 37.291 0.1368 55.939-0.4514 19.975-1.9174 39.955 0.1233 59.914 0.6272 6.132 2.4528 12.068 4.6919 17.784 7.189 18.35 6.8864 36.695 0.4581 55.114-17.414 49.897-30.716 101.05-46.205 151.53-12.957 42.234-25.536 84.583-38.229 126.9-1.043 3.4771-1.6815 7.0754-2.5082 10.617h-385c1.0511-2.9685 2.3931-5.8685 3.1094-8.9158 9.7054-41.289 14.657-83.258 14.715-125.57 0.0641-46.463-1.8713-92.926-4.1776-139.35-1.3253-26.679-0.6995-53.275 4.0837-79.623 5.5267-30.443 13.722-60.212 23.274-89.619 8.4788-26.103 17.393-52.013 31.476-75.807 8.1844-13.828 13.567-28.828 17.833-44.274 1.4633-5.2988 1.8733-10.395-0.254-15.606-2.1289-5.2153-1.1278-10.058 2.0336-14.648 1.6426-2.3849 4.0786-4.3085 4.8674-7.3949-3.365-1.0726-5.9905-0.3715-8.5786 1.6526-6.9502 5.4357-13.83 11-21.114 15.961-11.272 7.6772-17.147 6.7944-26.71-2.8397-7.7036-7.761-13.935-16.506-18.589-26.404-1.0472-2.2273-1.9896-4.9445-4.7396-5.455-4.8742-0.9049-6.7644-4.3085-8.0909-8.4647-0.9089-2.8477-1.9487-5.6538-2.9448-8.4733-1.2988-3.6766-4.1422-6.3129-7.7527-6.028-6.5057 0.5133-11.03-2.8702-15.863-6.1235-3.4446-2.3187-7.0134-4.4648-10.613-6.5379-4.5764-2.6355-9.0215-2.3059-12.803 1.4675-6.1153 6.1025-12.731 9.4198-21.4 4.3491 4.2921 4.5467 8.3875 8.6735 11.23 13.836 4.1904 7.6102 2.1908 14.352-5.5917 18.253-3.4556 1.7323-6.6092 3.7202-9.3043 6.5697-3.697 3.909-4.3796 7.9524-1.7676 12.702 2.0809 3.7839 3.8057 7.7629 5.8681 11.558 2.1713 3.9952 2.039 7.6799-1.1546 10.98-3.0486 3.1504-2.5344 5.1091 1.392 7.0986 5.4125 2.7425 5.9472 4.7634 3.6948 10.496-1.0939 2.7841-2.1998 5.5784-3.5415 8.2469-3.1884 6.3419-3.7956 12.625-0.3347 19.092 1.5203 2.8409 2.0952 5.979 1.6126 9.2034-1.4138 9.4462-13.834 21.408-23.412 22.926-8.7567 1.3877-17.604 0.2829-26.399 1.4911-11.167 1.534-18.851 6.6771-22.361 17.684-2.2313 6.9966-3.837 14.114-4.7612 21.367-1.6403 12.872-5.2557 24.93-12.73 35.773-7.5115 10.897-12.357 23.163-16.689 35.572-3.3458 9.5851-2.4095 18.94 2.7737 27.874 5.1689 8.9098 12.048 16.221 19.652 23.081 21.336 19.25 39.447 40.622 49.567 68.353 13.874 38.019 33.256 73.201 58.34 105.16 16.956 21.602 30.929 44.848 38.538 71.598 3.3262 11.694 6.1688 23.127 1.8723 35.132-2.6989 7.541-6.2761 14.661-9.9995 21.719-5.3589 10.159-10.472 20.407-12.257 31.935-131 3e-4 -262 3e-4 -393 3e-4zm340.97-655.13c-1.6728-6.507-0.0065-12.89 0.0348-19.28 0.1149-17.789-6.1517-34.156-11.962-50.559-2.822-7.9664-8.1993-10.012-16.765-7.1815 2.7671 6.0286 5.5314 12.053 8.2975 18.076 2.6816 5.8396 4.4022 11.942 3.3508 18.37-2.8051 17.147 7.2821 28.721 17.044 40.574zm-334.74 426.5c-1.5379 5.2742-1.3311 10.572-0.8912 15.879 1.2111-5.258 2.5454-10.5 0.8912-15.879zm64.807 227.51c1.5479 0.3093 3.1644 1.434 4.08-0.7395 0.2874-0.6823-0.293-1.7533-1.1246-1.9214-1.8954-0.3831-2.4198 1.0612-2.9554 2.6609z"/>
</svg>