<?xml version='1.0' encoding='utf-8'?>
<svg xmlns="http://www.w3.org/2000/svg" baseProfile="basic" version="1.1" viewBox="0 0 841.89 595.28">
<path d="m757.99 210.82c-1.556-6.78-3.903-13.448-7.097-19.737-6.3-12.635-16.11-23.585-27.667-31.471-5.757-3.994-11.951-7.213-18.315-9.757-1.589-0.65-3.188-1.259-4.804-1.795-0.812-0.278-1.596-0.565-2.431-0.831l-2.56-0.771-1.281-0.381c-0.438-0.133-0.856-0.253-1.201-0.336l-2.206-0.566-1.104-0.283-0.796-0.199-0.596-0.133-2.385-0.529c-12.72-2.774-25.974-4.179-39.352-3.477-13.357 0.74-26.805 3.604-39.334 8.851-12.552 5.189-24.046 12.772-33.885 21.908-0.946 0.877-1.865 1.781-2.782 2.687-0.017-0.193-0.027-0.387-0.044-0.582-1.173-12.236-3.687-24.863-9.786-36.867-3.045-5.959-7.085-11.71-12.207-16.559-5.087-4.868-11.238-8.729-17.696-11.258-6.469-2.551-13.18-3.856-19.701-4.297-3.303-0.224-6.408-0.251-9.806-0.107l-2.139 0.12-2.574 0.216c-1.635 0.173-3.266 0.378-4.887 0.653-6.486 1.085-12.854 3.011-18.848 5.786-5.984 2.785-11.604 6.376-16.6 10.659-10.045 8.56-17.391 19.75-22.046 31.503-4.697 11.792-6.914 24.133-7.611 36.272-0.677 12.164 0.146 24.187 1.854 35.949 3.518 23.533 10.478 46.039 18.943 67.708 2.147 5.408 4.346 10.792 6.692 16.1 1.138 2.661 2.373 5.325 3.57 7.985l3.633 7.788c4.713 9.891 8.257 20.005 10.197 30.462 1.9 10.422 2.161 21.054 0.436 31.403-1.689 10.358-5.359 20.384-10.551 29.69-5.215 9.302-11.892 17.896-19.505 25.691-7.624 7.795-16.142 14.832-25.189 21.2-18.132 12.729-38.266 22.841-59.109 31.121-20.881 8.255-42.559 14.656-64.581 19.526-22.024 4.873-44.426 8.185-66.945 9.863-22.513 1.66-45.176 1.717-67.594-0.499-22.355-2.27-44.693-6.661-65.13-15.514-5.072-2.227-10.059-4.758-14.689-7.638-1.134-0.679-2.333-1.485-3.523-2.275l-3.392-2.364-3.358-2.484-3.269-2.587c-8.591-7.026-16.271-15.188-21.938-24.614-5.696-9.39-9.17-20.074-9.909-31.07-0.777-10.997 1.012-22.174 4.55-32.782 3.53-10.633 8.689-20.753 14.772-30.275 6.104-9.524 13.141-18.463 20.82-26.844l-1.692-1.58c-7.983 8.226-15.386 17.082-21.882 26.605-6.477 9.524-12.078 19.743-16.065 30.688-3.982 10.914-6.284 22.654-5.721 34.49 0.493 11.819 3.984 23.55 9.884 33.828 5.867 10.324 13.867 19.224 22.74 26.854l3.376 2.811 3.461 2.695c1.196 0.873 2.303 1.723 3.573 2.616 1.173 0.81 2.325 1.62 3.625 2.436 5.008 3.243 10.183 5.98 15.515 8.442 10.656 4.902 21.798 8.49 33.07 11.298 11.285 2.778 22.73 4.731 34.222 6.09 22.995 2.699 46.167 3.061 69.211 1.787 23.048-1.293 45.998-4.253 68.647-8.832 22.647-4.583 45-10.83 66.729-19.013 21.693-8.229 42.838-18.391 62.324-31.61 9.724-6.618 19.012-14.024 27.491-22.426 8.465-8.398 16.096-17.85 22.221-28.379 3.041-5.273 5.694-10.808 7.869-16.554 2.165-5.748 3.803-11.719 4.917-17.789 1.092-5.912 1.603-11.917 1.612-17.913l33.178-3.266c12.104-1.163 24.194-2.444 36.312-3.708 12.106-1.324 24.211-2.804 36.332-4.417 12.128-1.595 24.222-3.606 36.335-5.863 12.104-2.322 24.227-4.934 36.243-8.515 2.945-0.845 6.174-1.877 9.045-2.823l2.161-0.726 1.08-0.362 1.233-0.46c1.524-0.596 3.076-1.123 4.578-1.783 6.063-2.495 11.957-5.457 17.597-8.87 11.277-6.818 21.575-15.431 30.12-25.606 8.597-10.123 15.528-21.714 20.377-34.207 4.827-12.492 7.588-25.945 7.516-39.656 0.02-6.86-0.76-13.76-2.26-20.56zm-77.51-43.28l2.063 0.452 0.516 0.112c0.031 7e-3 0.025 5e-3 0.037 8e-3l0.272 0.069 1.104 0.28 2.208 0.562c0.394 0.094 0.705 0.187 0.991 0.278l0.9 0.273 1.805 0.538 1.88 0.641c1.271 0.414 2.51 0.884 3.731 1.384 4.905 1.971 9.593 4.318 13.854 7.201 8.563 5.703 15.579 13.338 20.263 22.4 4.697 9.041 7.229 19.362 7.502 29.959 0.319 10.599-1.591 21.425-5.276 31.665-3.7 10.243-9.167 19.945-16.101 28.502-3.465 4.279-7.259 8.304-11.338 12.039-4.102 3.708-8.506 7.1-13.159 10.137-4.651 3.037-9.556 5.721-14.649 8.023-1.258 0.612-2.574 1.099-3.857 1.658l-0.886 0.373-1.06 0.418-2.12 0.835c-2.846 1.1-5.36 2.051-8.207 3.033-11.115 3.865-22.567 7.23-34.156 10.27-5.803 1.502-11.641 2.928-17.503 4.296l-17.658 3.975c-11.805 2.604-23.687 4.999-35.587 7.407-11.889 2.479-23.824 4.802-35.733 7.338-10.751 2.264-21.497 4.607-32.194 7.166-0.132-5.388-0.643-10.757-1.539-16.03-2.058-12.043-6.026-23.696-10.991-34.47l-3.495-7.782c-1.106-2.561-2.236-5.092-3.305-7.697-2.198-5.166-4.237-10.384-6.229-15.616-7.843-20.938-14.098-42.458-17.013-64.18-1.418-10.843-1.976-21.726-1.226-32.361 0.364-5.317 1.097-10.557 2.206-15.654 1.094-5.103 2.607-10.05 4.578-14.733 3.925-9.363 9.718-17.662 17.207-23.805 7.46-6.159 16.561-10.141 26.147-11.526 1.197-0.182 2.401-0.307 3.607-0.414l1.692-0.114 2.14-0.082c2.306-0.051 4.917 7e-3 7.306 0.221 4.854 0.415 9.454 1.456 13.583 3.175 8.29 3.388 14.511 9.785 18.608 18.305 4.125 8.498 6.128 18.705 6.868 29.149 0.727 10.488 0.209 21.318-1.012 32.139l-3.542 32.994s35.325-45.417 65.481-60.053c41.24-20.03 71.28-12.77 71.28-12.77z" fill="#EE3E80"/>
<path d="m339.43 277.25l0.529-15.204c-0.096-7.526 0.108-15.006 0.73-22.343 0.634-7.336 1.609-14.539 3.263-21.346 1.644-6.788 4.011-13.167 7.211-18.332 3.222-5.174 7.142-8.828 11.906-10.758 4.763-1.935 10.697-2.33 17.131-1.173 1.591 0.212 3.225 0.661 4.851 1.019l0.153 0.035 0.052 0.012 0.68 0.215 1.403 0.446 1.403 0.446c0.445 0.148 0.634 0.278 0.966 0.414 0.598 0.266 1.203 0.517 1.816 0.757 0.652 0.308 1.364 0.722 2.048 1.071 1.415 0.654 2.698 1.63 4.054 2.457 5.301 3.599 10.002 8.507 13.965 14.093 3.964 5.604 7.166 11.942 9.628 18.654 2.468 6.718 4.191 13.805 5.414 21.05 1.119 7.272 1.63 14.698 1.709 22.184-0.132 3.746-0.069 7.505-0.427 11.264-0.147 1.879-0.239 3.766-0.432 5.647l-0.645 5.647c-0.175 1.89-0.459 3.768-0.767 5.646l-0.88 5.646c-0.754 3.739-1.431 7.506-2.305 11.237-1.748 7.463-3.794 14.887-6.141 22.246-1.175 3.679-2.334 7.372-3.715 10.993-1.314 3.646-2.623 7.3-4.133 10.88-1.473 3.594-2.84 7.243-4.461 10.786-1.588 3.556-3.055 7.181-4.795 10.675-1.72 3.504-3.287 7.098-5.067 10.582l-5.313 10.494 1.976 1.21 6.671-9.785c2.216-3.272 4.262-6.654 6.368-10.009 2.145-3.333 4.027-6.816 6.034-10.238 2.025-3.416 3.871-6.932 5.699-10.462 1.89-3.5 3.584-7.1 5.291-10.703 1.767-3.575 3.325-7.25 4.902-10.925 3.196-7.332 5.87-14.902 8.355-22.558 1.231-3.832 2.27-7.733 3.384-11.618l1.418-5.904c0.488-1.968 0.95-3.941 1.305-5.944l1.135-5.996c0.339-2.008 0.576-4.038 0.869-6.058 0.646-4.033 0.868-8.137 1.269-12.224 0.463-8.213 0.45-16.508-0.279-24.839-0.783-8.328-2.414-16.654-4.94-24.822-2.536-8.161-6.035-16.169-10.766-23.645-4.744-7.443-10.652-14.453-18.104-20.058-1.922-1.33-3.762-2.76-5.855-3.889-1.039-0.592-2.011-1.191-3.112-1.765l-3.561-1.644c-0.571-0.25-1.256-0.573-1.735-0.751l-1.385-0.5-1.385-0.5-0.692-0.25-0.347-0.125-0.674-0.211-0.205-0.057c-2.18-0.591-4.323-1.244-6.609-1.668-4.494-0.957-9.249-1.55-14.221-1.364-4.947 0.15-10.104 1.017-15.046 2.847-4.944 1.81-9.59 4.587-13.52 7.947-3.932 3.364-7.236 7.225-9.847 11.271-5.238 8.112-8.392 16.649-10.629 25.049-0.741 2.845-1.354 5.682-1.911 8.516-0.088-0.114-0.17-0.231-0.258-0.346-2.85-3.817-6.015-7.416-9.309-10.897-6.658-6.902-14.1-13.167-22.306-18.356-8.234-5.137-17.165-9.21-26.43-12.014-9.302-2.819-18.751-4.359-28.417-4.825l-3.707-0.112c-1.208-0.022-2.547-0.1-3.569-0.035l-6.531 0.214-0.526 0.018-0.23 0.023-0.459 0.048-0.918 0.096-1.836 0.196-3.668 0.398c-1.222 0.092-2.443 0.346-3.665 0.606l-3.66 0.762c-9.718 2.235-19.277 6.468-27.375 12.734-8.127 6.227-14.645 14.342-19.22 23.146-4.612 8.817-7.37 18.278-8.822 27.728-1.443 9.468-1.55 18.976-0.663 28.301 0.911 9.323 2.745 18.501 5.54 27.353 2.802 8.848 6.438 17.399 10.812 25.548 4.326 8.18 9.623 15.827 15.502 22.963 2.874 3.629 6.138 6.928 9.339 10.265l5.092 4.727c0.821 0.798 1.739 1.555 2.678 2.304l2.783 2.253 2.789 2.241 2.676 1.881 2.675 1.877 1.337 0.938 0.558 0.387 0.354 0.22 0.709 0.439 11.361 7.013c1.866 1.205 3.859 2.233 5.808 3.322l5.87 3.23c3.857 2.241 7.958 4.085 11.983 6.047 16.168 7.719 33.277 13.625 50.652 17.635 17.382 4.05 34.917 6.424 52.335 8.362 17.431 1.898 34.794 3.324 52.132 4.955 8.658 0.822 17.333 1.609 25.958 2.523l12.958 1.339 12.987 1.479c4.328 0.522 8.692 0.9 12.847 1.609l6.314 0.958c2.108 0.312 4.154 0.873 6.237 1.298 8.351 1.654 16.384 4.421 24.241 7.547 7.751 3.381 15.144 7.52 21.991 12.46 6.754 5.063 12.863 10.969 18.146 17.577 10.602 13.225 17.587 29.268 21.298 46.011 1.868 8.381 2.953 16.956 3.39 25.571 0.214 4.309 0.271 8.63 0.117 12.945-0.149 4.306-0.424 8.647-1.021 12.877l2.283 0.385c0.771-4.377 1.191-8.735 1.497-13.126 0.305-4.385 0.398-8.784 0.33-13.184-0.144-8.795-0.952-17.604-2.578-26.296-1.627-8.688-4.077-17.264-7.506-25.484-3.438-8.212-7.864-16.057-13.252-23.217-5.386-7.16-11.704-13.643-18.744-19.241-7.131-5.479-14.874-10.115-22.995-13.939-8.211-3.563-16.646-6.724-25.348-8.724-2.171-0.51-4.321-1.158-6.514-1.553l-6.575-1.197c-4.416-0.878-8.729-1.373-13.032-2.023l-12.91-1.92-12.996-1.729c-8.674-1.177-17.329-2.219-25.992-3.298-17.308-2.121-34.63-4.119-51.797-6.414-17.153-2.347-34.159-5.104-50.627-9.387-16.475-4.248-32.344-10.188-47.438-17.86-3.758-1.953-7.574-3.771-11.199-6.009l-5.501-3.213c-1.828-1.081-3.688-2.094-5.453-3.302l-10.716-6.979-0.67-0.435-0.26-0.168c-0.013-0.01-0.027-0.021-0.02-0.016l-0.165-0.12-1.318-0.965-2.636-1.932-2.631-1.932-2.249-1.921-2.254-1.91c-0.755-0.622-1.507-1.263-2.232-2.003l-4.402-4.255c-2.754-3.016-5.582-5.965-8.047-9.23-5.057-6.407-9.61-13.253-13.275-20.566-3.712-7.28-6.763-14.892-9.066-22.706-2.296-7.817-3.709-15.855-4.327-23.879-0.598-8.022-0.319-16.062 1.026-23.798 1.335-7.729 3.811-15.139 7.454-21.679 3.639-6.542 8.482-12.162 14.305-16.38 5.815-4.238 12.603-7.066 19.88-8.545l2.752-0.496c0.914-0.178 1.826-0.357 2.786-0.387l5.375-0.419 6.535-5e-3c1.157-0.033 1.992 0.088 2.96 0.141l2.821 0.187c7.717 0.627 15.547 2.154 22.842 4.642 7.335 2.483 18.535 8.322 25.291 12.062 11.823 6.544 28.658 23.448 39.071 34.729 13.03 14.13 20.99 30.05 20.99 30.05zm45.4-88.23c-0.05-0.01-0.04-0.01 0 0z" fill="#F38FBB"/>
<path d="m225.8 401.57s-1.622-0.591-4.559-1.843c-2.946-1.248-7.203-3.209-12.5-5.971-5.288-2.771-11.632-6.332-18.553-11.013-6.922-4.668-14.522-10.329-22.179-17.315-7.651-6.979-15.413-15.245-22.474-24.987-7.072-9.72-13.315-21.007-17.913-33.505-4.553-12.5-7.341-26.218-7.857-40.241-0.545-14.016 0.814-28.3 3.859-42.139l0.247-1.309 0.335-1.28 0.673-2.561 1.35-5.125 1.358-5.125 1.645-5.001c1.107-3.336 2.213-6.666 3.316-9.986 1.304-3.229 2.604-6.449 3.899-9.656 0.651-1.606 1.301-3.209 1.95-4.808 0.617-1.621 1.443-3.112 2.153-4.669 1.461-3.09 2.973-6.139 4.472-9.175l1.123-2.273 0.512-1.045 0.558-1.08c0.733-1.445 1.519-2.854 2.273-4.274 1.578-2.87 2.868-5.535 4.299-8.261 5.698-10.895 10.899-21.524 15.373-31.668 2.129-5.103 4.237-10.058 5.849-14.928 1.713-4.842 3.142-9.578 4.22-14.126 1.063-4.555 1.859-8.938 2.268-13.114 0.42-4.172 0.411-8.118 0.145-11.813-0.556-7.392-2.537-13.715-4.874-18.759-1.25-2.467-2.396-4.737-3.609-6.595-0.57-0.956-1.156-1.806-1.7-2.585-0.529-0.792-1.023-1.511-1.493-2.135-0.902-1.282-1.668-2.213-2.165-2.864-0.5-0.652-0.757-0.989-0.757-0.989l1.427-1.635s0.368 0.23 1.081 0.677c0.719 0.444 1.767 1.126 3.098 2.091 1.356 0.934 2.96 2.19 4.762 3.8 1.837 1.577 3.821 3.57 5.881 5.995 2.006 2.465 4.104 5.361 6.026 8.79 1.889 3.438 3.547 7.406 4.811 11.795 1.289 4.384 2.129 9.196 2.538 14.26 0.352 5.062 0.284 10.373-0.228 15.824-0.997 10.915-3.712 22.316-7.592 33.83-3.887 11.516-8.924 23.175-15.047 34.68-1.575 2.847-3.187 5.872-4.788 8.594-0.809 1.39-1.593 2.8-2.435 4.184l-0.623 1.044-0.631 1.104-1.163 2.038c-3.006 5.487-6.556 10.838-9.249 16.607-1.444 2.851-2.895 5.713-4.35 8.584-1.245 2.951-2.495 5.909-3.746 8.874l-1.879 4.465-1.507 4.577-1.517 4.587-0.762 2.298-0.381 1.149-0.291 1.166c-3.441 12.398-5.334 25.133-5.54 37.697-0.158 12.558 1.427 24.948 4.795 36.517 3.379 11.567 8.458 22.244 14.334 31.777 5.889 9.538 12.631 17.9 19.438 25.098 6.817 7.197 13.652 13.302 20.008 18.359 6.351 5.072 12.239 9.066 17.151 12.258 4.931 3.164 8.934 5.466 11.703 6.942 2.772 1.488 4.271 2.192 4.271 2.192l-0.84 1.99z" fill="#F38FBB"/>
<path d="m497.55 386.96s5.756-1.491 15.902-3.72c5.076-1.097 11.243-2.438 18.359-3.756 7.111-1.343 15.158-2.753 23.965-4.144 17.613-2.769 38.283-5.477 60.62-7.049 11.168-0.751 22.749-1.232 34.556-1.28 11.806-0.063 23.84 0.336 35.879 1.42 12.037 1.077 24.088 2.772 35.875 5.383 11.785 2.601 23.309 6.11 34.197 10.753 5.43 2.355 10.692 5.001 15.684 8.003 1.236 0.772 2.481 1.516 3.69 2.311 1.199 0.822 2.39 1.641 3.574 2.453 1.129 0.795 2.253 1.587 3.367 2.371 0.501 0.349 1.08 0.809 1.658 1.269l1.711 1.359c2.269 1.807 4.248 3.637 6.211 5.588 0.991 0.944 1.938 1.932 2.833 2.953 0.918 0.997 1.803 2.019 2.628 3.08 3.376 4.17 6.19 8.614 8.418 13.124 4.521 9.006 6.712 18.157 7.254 26.165 0.544 8.04-0.403 14.935-1.786 20.34-0.711 2.708-1.49 5.06-2.242 7.062-0.77 2.001-1.56 3.644-2.183 4.963-1.343 2.616-2.203 3.916-2.203 3.916l-1.947-0.557s-0.034-1.504-0.095-4.326c-0.028-1.389-0.102-3.093-0.252-5.067-0.088-1.963-0.328-4.208-0.661-6.666-0.617-4.909-1.768-10.697-3.825-16.855-2.057-6.163-5.083-12.671-9.394-19.085-4.347-6.366-9.808-12.841-16.278-19.232l-1.174-1.153c-0.385-0.385-0.771-0.771-1.288-1.217-0.896-0.822-1.8-1.649-2.709-2.483-0.915-0.734-1.838-1.474-2.767-2.217-0.945-0.727-1.938-1.418-2.914-2.139-3.977-2.799-8.294-5.419-12.897-7.802-9.216-4.773-19.559-8.535-30.396-11.477-10.846-2.947-22.198-5.106-33.68-6.683-22.983-3.09-46.439-4.148-68.445-3.911-11.007 0.09-21.666 0.414-31.771 0.945-10.105 0.534-19.66 1.238-28.471 2.027-8.813 0.79-16.883 1.652-24.026 2.51-7.143 0.868-13.374 1.637-18.494 2.354-10.242 1.421-16.054 2.45-16.054 2.45l-0.44-1.96z" fill="#EE3E80"/>
<linearGradient id="c" x1="662.36" x2="495.23" y1="188.91" y2="258.37" gradientUnits="userSpaceOnUse">
	<stop stop-color="#fff" offset="0"/>
	<stop stop-color="#FACBDD" offset=".1801"/>
	<stop stop-color="#F699BC" offset=".3796"/>
	<stop stop-color="#F372A2" offset=".568"/>
	<stop stop-color="#F0558F" offset=".7398"/>
	<stop stop-color="#EF4484" offset=".8894"/>
	<stop stop-color="#EE3E80" offset="1"/>
</linearGradient>
<path d="m494.15 361.9s133.13-14.471 201.14-57.883c72.894-46.528 26.53-136.42-23.877-135.3-65.118 1.447-99.229 50.183-111.42 59.33-12.194 9.146-26.93 29.708-26.93 29.708s29.979-121.7-25.916-128.81-67.687 63.276-52.067 112.85c16.65 52.81 39.08 120.1 39.08 120.1z" fill="url(#c)"/>
<linearGradient id="d" x1="167.44" x2="424.13" y1="298.94" y2="298.94" gradientUnits="userSpaceOnUse">
	<stop stop-color="#fff" offset="0"/>
	<stop stop-color="#F38FBB" offset="1"/>
</linearGradient>
<path d="m382.84 406.04s39.737-65.189 41.241-131.68c1.502-66.496-34.53-84.276-53.157-82.544-18.628 1.733-22.701 34.892-25.708 60.114-3.006 25.222-1.447 41.965-1.447 41.965s-24.905-55.428-75.248-81.759c-50.343-26.333-90.778-8.855-99.798 34.711-9.02 43.564 29.966 109.07 101.97 134.6 79.6 28.21 112.16 24.59 112.16 24.59z" fill="url(#d)"/>
</svg>