<?xml version="1.0" encoding="UTF-8" standalone="no"?>
<!-- Generator: Adobe Illustrator 17.0.0, SVG Export Plug-In . SVG Version: 6.00 Build 0)  -->

<svg
   xmlns:dc="http://purl.org/dc/elements/1.1/"
   xmlns:cc="http://creativecommons.org/ns#"
   xmlns:rdf="http://www.w3.org/1999/02/22-rdf-syntax-ns#"
   xmlns:svg="http://www.w3.org/2000/svg"
   xmlns="http://www.w3.org/2000/svg"
   xmlns:sodipodi="http://sodipodi.sourceforge.net/DTD/sodipodi-0.dtd"
   xmlns:inkscape="http://www.inkscape.org/namespaces/inkscape"
   version="1.1"
   x="0px"
   y="0px"
   width="1148.964"
   height="1133.9346"
   viewBox="0 0 1148.964 1133.9346"
   enable-background="new 0 0 1094 800"
   xml:space="preserve"
   id="svg96"
   sodipodi:docname="social-icon-set.svg"
   inkscape:version="0.92.3 (2405546, 2018-03-11)"><metadata
   id="metadata102"><rdf:RDF><cc:Work
       rdf:about=""><dc:format>image/svg+xml</dc:format><dc:type
         rdf:resource="http://purl.org/dc/dcmitype/StillImage" /><dc:title></dc:title></cc:Work></rdf:RDF></metadata><defs
   id="defs100">
	

	
	

	
	

	
	

	
	

	
	

	
	

	
	

	
	

	
	

	
	

	
	

</defs><sodipodi:namedview
   pagecolor="#ffffff"
   bordercolor="#666666"
   borderopacity="1"
   objecttolerance="10"
   gridtolerance="10"
   guidetolerance="10"
   inkscape:pageopacity="0"
   inkscape:pageshadow="2"
   inkscape:window-width="1366"
   inkscape:window-height="705"
   id="namedview98"
   showgrid="false"
   inkscape:zoom="0.27787934"
   inkscape:cx="575.96396"
   inkscape:cy="698.86536"
   inkscape:window-x="-8"
   inkscape:window-y="-8"
   inkscape:window-maximized="1"
   inkscape:current-layer="svg96"
   fit-margin-top="50"
   fit-margin-left="50"
   fit-margin-right="50"
   fit-margin-bottom="50" />
<circle
   style="fill:#ffffff;fill-opacity:1"
   id="circle2"
   r="115.714"
   cy="170.92625"
   cx="182.24995" /><path
   style="fill:#000000"
   inkscape:connector-curvature="0"
   id="path4"
   d="m 164.30397,236.47827 v -75.786 h -12.534 v -15.356 h 12.534 v -6.558 c 0,-23.629 11.206,-35.444 33.618,-35.444 7.249,0 14.72,1.052 22.412,3.154 v 16.602 c -6.973,-2.933 -13.227,-4.399 -18.76,-4.399 -8.467,0 -12.7,6.392 -12.7,19.175 v 7.471 h 23.076 v 15.356 h -23.076 v 75.786 h -24.57 z" />
<circle
   style="fill:#ffffff;fill-opacity:1"
   id="circle7"
   r="115.714"
   cy="431.35529"
   cx="186.05196" /><g
   id="g13"
   transform="translate(28.963966,35.069267)"
   style="fill:#000000">
		<g
   id="g11"
   style="fill:#000000">
			<path
   style="clip-rule:evenodd;fill:#000000;fill-rule:evenodd"
   inkscape:connector-curvature="0"
   id="path9"
   d="m 217.179,427.387 c -2.635,-12.102 -4.931,-22.738 -9.122,-32.433 -13.262,-30.682 -36.815,-51.028 -69.934,-61.826 -8.623,-2.811 -17.968,-2.326 -27.872,-4.054 -1.077,0.727 -3.714,0.578 -5.574,0.507 -1.52,1.182 -3.041,2.365 -4.561,3.547 -0.793,3.295 -1.177,4.93 -1.014,8.615 2.084,2.161 3.385,5.045 6.588,6.081 h 10.135 c 5.552,1.216 11.405,1.331 16.723,3.041 14.109,4.536 28.049,11.386 37.501,20.777 11.038,10.968 19.555,24.302 25.338,40.541 2.09,5.867 2.167,12.457 3.547,18.75 1.203,5.487 -0.953,9.927 2.027,13.176 2.564,6.99 14.143,3.735 15.71,-2.027 1.217,-1.757 1.271,-11.194 0.508,-14.695 z M 106.704,362.52 c -0.595,0.409 -0.848,0.408 -2.027,0.507 -1.22,1.212 -3.132,2.639 -4.561,3.547 -0.836,3.267 -2.356,6.749 0,9.629 2.362,6.527 7.753,3.34 15.203,5.068 11.818,2.741 21.143,6.534 29.392,12.669 8.327,6.193 15.242,17.49 18.75,28.379 1.02,3.167 1.351,6.562 2.027,9.629 0.747,3.39 -0.627,7.375 0.507,10.135 1.357,3.302 4.237,3.86 6.588,6.081 5.781,-0.005 6.924,-1.893 10.135,-4.054 3.609,-13.825 -2.123,-28.376 -6.588,-38.514 -10.32,-23.439 -35.513,-43.321 -69.426,-43.076 z m 10.136,41.555 c -1.799,1.163 -4.045,1.099 -6.081,2.027 -5.082,2.316 -9.549,8.413 -11.149,14.19 -4.132,14.919 10.896,29.87 25.338,26.352 11.271,-2.745 22.516,-16.58 15.203,-30.913 -3.941,-7.725 -11.168,-11.92 -23.311,-11.656 z" />
		</g>
	</g>
<circle
   style="fill:#ffffff;fill-opacity:1"
   id="circle16"
   r="115.714"
   cy="423.64429"
   cx="438.29596" /><text
   style="font-size:157.11950684px;font-family:Montserrat-Bold;fill:#000000;"
   id="text18"
   font-size="157.1195"
   x="367.53107"
   y="467.77548">in</text>

<circle
   style="fill:#ffffff;fill-opacity:1"
   id="circle21"
   r="115.714"
   cy="423.64429"
   cx="711.80402" /><path
   style="clip-rule:evenodd;fill:#000000;fill-rule:evenodd"
   inkscape:connector-curvature="0"
   id="path23"
   d="m 754.72997,364.66827 c 8.188,-0.188 15.632,-0.055 20.413,3.189 8.211,5.573 10.922,24.615 6.379,36.998 -8.469,23.082 -31.683,55.328 -49.756,68.893 -5.711,4.286 -17.602,16.802 -29.981,13.396 -18.6,-5.118 -23.754,-45.417 -29.981,-64.427 -2.619,-7.994 -3.803,-19.613 -11.482,-22.326 -0.826,-0.56 -1.574,-0.57 -3.189,-0.638 -2.404,2.325 -6.861,5.291 -10.206,6.379 0,-0.213 0,-0.425 0,-0.638 -2.299,-1.578 -5.421,-5.505 -6.379,-8.293 12.706,-8.11 21.291,-21.555 35.084,-28.705 7.549,-3.913 18.067,-1.807 22.326,4.465 7.726,11.378 8.508,41.23 13.396,56.135 1.521,4.637 3.403,15.515 8.931,13.396 7.771,-2.172 18.185,-21.416 21.051,-29.343 1.265,-3.499 2.092,-9.797 0,-12.758 -0.954,-2.748 -2.653,-2.748 -4.465,-4.465 -6.334,-0.103 -9.937,1.205 -14.672,1.914 0,-0.213 0,-0.425 0,-0.638 1.263,-1.65 0.984,-3.539 1.914,-5.741 2.307,-5.462 6.506,-13.545 10.844,-17.223 3.386,-2.871 7.807,-5.927 12.12,-7.655 2.48,-0.995 5.607,-0.567 7.653,-1.915 z" />
<circle
   style="fill:#ffffff;fill-opacity:1"
   id="circle26"
   r="115.714"
   cy="692.91327"
   cx="182.24995" /><path
   style="clip-rule:evenodd;fill:#000000;fill-rule:evenodd"
   inkscape:connector-curvature="0"
   id="path28"
   d="m 176.28197,620.93927 c 32.552,-0.472 52.406,11.565 60.101,35.062 2.172,6.631 2.233,17.896 0.541,24.968 -4.811,20.109 -8.808,30.376 -24.365,39.843 -6.382,3.884 -18.433,8.11 -28.697,4.781 -5.762,-1.869 -8.707,-6 -12.995,-9.031 -0.946,10.029 -5.671,24.179 -9.746,31.874 -1.54,2.908 -2.305,7.719 -5.956,8.5 -5.785,-4.713 -9.615,1.003 -9.205,-11.156 1.511,-2.534 1.661,-13.366 2.707,-17 3.512,-12.2 6.895,-25.826 9.746,-38.249 0.661,-2.881 -1.114,-4.663 -1.624,-6.375 -1.225,-4.113 -1.297,-12.899 0,-17 1.744,-5.515 11.562,-19.096 20.575,-12.75 6.803,2.176 8.242,11.567 5.956,19.656 -3.192,11.292 -13.726,31.579 1.624,37.187 11.332,4.14 19.508,-5.501 23.282,-11.156 12.681,-19.001 12.904,-52.077 -8.663,-61.624 -5.39,-2.386 -15.036,-4.268 -22.199,-2.656 -3.455,0.777 -5.67,0.101 -8.663,1.062 -15.613,5.013 -24.7,15.411 -28.697,31.874 -1.715,7.064 0.379,16.182 3.249,20.718 0.915,1.446 3.693,3.238 3.79,5.312 -0.902,3.364 -1.805,6.729 -2.707,10.094 -1.215,0.312 -1.438,0.397 -2.166,1.062 -3.089,-1.224 -6.144,-2.41 -8.663,-4.25 -9.341,-6.821 -14.063,-28.403 -8.663,-43.03 4.471,-12.112 13.39,-22.9 23.824,-29.218 5.116,-3.098 11.721,-5.13 17.868,-6.906 3.248,-0.529 6.498,-1.06 9.746,-1.592 z" />
<circle
   style="fill:#ffffff;fill-opacity:1"
   id="circle31"
   r="115.714"
   cy="423.64429"
   cx="964.02197" /><path
   style="clip-rule:evenodd;fill:#000000;fill-rule:evenodd"
   inkscape:connector-curvature="0"
   id="path33"
   d="m 974.59197,451.01827 c -0.056,7.693 -1.428,23.088 0.42,29.398 0.89,3.039 3.484,3.737 3.78,7.56 -0.528,0.273 -0.87,0.458 -1.26,0.84 -15.333,-3.133 -11.99,-21.177 -11.759,-39.058 -0.7,0 -1.4,0 -2.1,0 0.267,15.516 4.394,38.794 -12.599,38.638 -0.265,-0.737 -0.081,-0.408 -0.42,-0.84 0.786,-2.718 3.039,-3.783 3.78,-6.72 0.14,-10.078 0.28,-20.16 0.42,-30.238 -0.14,0 -0.28,0 -0.42,0 -2.938,4.813 -2.019,14.313 -2.52,21.419 -0.076,1.081 0.537,5.588 -0.42,7.14 -1.462,4.409 -8.043,6.69 -13.859,5.46 -0.14,-0.42 -0.28,-0.84 -0.42,-1.26 7.931,-5.057 6.905,-10.394 6.72,-23.099 -0.28,0 -0.56,0 -0.84,0 -1.796,1.148 -7.016,0.829 -8.819,0.42 -2.886,-0.655 -4.801,-0.217 -7.14,-1.26 -6.606,-2.947 -7.34,-9.984 -11.339,-15.539 -1.983,-2.754 -7.09,-3.943 -7.56,-7.979 0.28,0 0.56,0 0.84,0 7.542,-4.953 15.008,10.432 18.899,13.019 4.48,2.979 11.758,1.045 16.379,0 1.399,-4.281 2.474,-7.472 5.88,-9.659 -0.429,-0.338 -0.115,-0.149 -0.84,-0.42 -2.053,-1.237 -5.467,-0.559 -7.979,-1.26 -5.454,-1.521 -11.233,-3.428 -15.539,-6.3 -14.082,-9.391 -20.764,-41.196 -5.88,-55.017 -0.651,-6.516 -4.164,-22.779 5.04,-22.679 2.799,0.84 5.6,1.68 8.399,2.52 3.836,1.666 6.98,5.524 11.339,6.3 3.233,-2.243 21.232,-3.911 27.718,-2.52 1.963,0.421 9.551,2.251 11.339,1.68 1.078,-0.344 2.412,-1.943 3.36,-2.52 4.741,-2.884 11.474,-6.105 18.05903,-5.46 0.691,2.75 1.802,5.957 2.52,9.239 0.85,3.885 -2.158,8.934 -0.42,11.759 0.625,1.763 2.002,2.443 2.94,3.78 1.792,2.555 3.607,6.158 4.62,9.239 5.464,16.619 -1.941,37.834 -11.339,44.097 -4.34503,2.896 -10.30303,4.395 -15.95903,5.88 -2.395,0.629 -7.164,-0.116 -8.399,1.68 8.289,2.978 6.719,18.508 6.72,29.818 0,2.66 0,5.32 0,7.979 1.082,3.327 5.526,3.643 6.3,7.14 -0.42,0.14 -0.84,0.28 -1.26,0.42 -3.615,2.513 -11.42,-2.268 -12.179,-4.62 -1.686,-1.919 -1.26,-6.048 -1.26,-9.659 0,-6.936 0.444,-14.621 -1.68,-19.319 -0.423,10e-4 -0.843,10e-4 -1.263,10e-4 z" />
<circle
   style="fill:#ffffff;fill-opacity:1"
   id="circle36"
   r="115.714"
   cy="692.91327"
   cx="438.29596" /><path
   style="clip-rule:evenodd;fill:#000000;fill-rule:evenodd"
   inkscape:connector-curvature="0"
   id="path38"
   d="m 374.56897,708.56327 c 0.099,-3.031 0.757,-6.9 2.198,-8.794 3.4,-11.338 15.139,-8.91 27.115,-8.061 0,-0.488 0,-0.977 0,-1.466 -2.908,-4.496 -1.636,-16.887 0,-21.252 4.637,-12.371 17.388,-26.975 37.374,-20.519 8.572,2.769 16.449,9.599 19.786,17.588 1.938,4.639 1.221,15.646 5.13,18.321 4.436,-6.929 12.926,-13.903 21.985,-16.122 23.001,-5.635 39.208,22.825 27.847,41.038 -8.01,12.842 -23.544,12.459 -44.702,12.458 -23.692,0 -47.392,0 -71.084,0 -12.112,0 -26.822,0.806 -36.641,-1.466 -2.895,-5.676 -1.709,-7.719 2.198,-11.725 2.931,0 5.863,0 8.794,0 z" />
<circle
   style="fill:#ffffff;fill-opacity:1"
   id="circle41"
   r="115.714"
   cy="692.91327"
   cx="711.80402" /><g
   id="g47"
   transform="translate(28.963966,35.069267)"
   style="fill:#000000">
		<g
   id="g45"
   style="fill:#000000">
			<path
   style="clip-rule:evenodd;fill:#000000;fill-rule:evenodd"
   inkscape:connector-curvature="0"
   id="path43"
   d="m 634.404,619.676 c -2.157,1.393 -5.223,1.05 -7.794,2.125 -9.891,4.136 -18.692,14.034 -21.964,24.797 -7.619,25.059 17.081,52.636 42.511,46.76 18.634,-4.306 39.014,-25.417 28.341,-51.01 -6.198,-14.863 -19.154,-23.083 -41.094,-22.672 z m 120.449,22.672 c -6.198,-14.863 -19.154,-23.082 -41.094,-22.671 -2.157,1.393 -5.223,1.05 -7.794,2.125 -9.891,4.136 -18.692,14.034 -21.964,24.797 -7.619,25.059 17.081,52.636 42.511,46.76 18.634,-4.307 39.014,-25.418 28.341,-51.011 z" />
		</g>
	</g>
<circle
   style="fill:#ffffff;fill-opacity:1"
   id="circle50"
   r="115.714"
   cy="691.97925"
   cx="964.02197" /><g
   id="g56"
   transform="translate(28.963966,35.069267)"
   style="fill:#000000">
		<g
   id="g54"
   style="fill:#000000">
			<path
   style="clip-rule:evenodd;fill:#000000;fill-rule:evenodd"
   inkscape:connector-curvature="0"
   id="path52"
   d="m 1002.524,610.833 c -1.774,-0.08 -0.901,-0.438 -1.858,0 h -89.788 c -10.13,0 -32.288,-1.999 -40.25,0.619 0.083,32.698 1.822,61.172 1.858,92.265 h 129.419 c -0.08,-3.053 -0.66,-8.576 0.619,-10.527 z m -115.795,7.431 h 97.219 c -6.063,12.639 -23.319,27.033 -34.058,37.773 -3.844,3.845 -8.234,11.099 -13.623,13.004 -16.511,-16.511 -33.027,-33.027 -49.538,-49.538 z m -4.954,69.972 c -2.032,-0.445 -1.443,-0.633 -3.096,-1.238 v -60.065 c 4.189,1.498 6.975,6.356 9.908,9.288 7.18,7.18 14.424,13.902 21.054,21.673 -1.729,8.368 -22.517,22.332 -27.866,30.342 z m 102.792,9.289 h -73.069 c -8.979,-10e-4 -22.143,1.578 -24.769,-3.096 9.7,-9.907 19.403,-19.816 29.104,-29.723 6.192,6.192 12.385,12.385 18.577,18.577 7.113,-2.568 13.418,-13.699 19.815,-17.958 0.206,-0.206 0.413,-0.413 0.619,-0.619 10.113,10.319 20.229,20.642 30.342,30.961 -0.207,0.619 -0.413,1.239 -0.619,1.858 z m 8.669,-9.289 -0.619,0.619 -19.815,-19.815 c -3.106,-4.112 -6.905,-9.504 -11.146,-12.385 1.22,-3.383 4.492,-5.111 6.812,-7.431 7.636,-7.843 15.275,-15.688 22.911,-23.531 h 1.238 c -0.582,2.145 0.511,3.157 0.619,6.192 0.206,10.526 0.413,21.055 0.619,31.581 -10e-4,4.227 -1.204,12.528 0.619,15.481 0.13,3.368 0.53,7.725 -1.238,9.289 z" />
		</g>
	</g>
<circle
   style="fill:#ffffff;fill-opacity:1"
   id="circle59"
   r="115.714"
   cy="169.90627"
   cx="983.25" /><g
   id="g69"
   transform="translate(28.963966,35.069267)"
   style="fill:#000000">
		<g
   id="g67"
   style="fill:#000000">
			<g
   id="g65"
   style="fill:#000000">
				<path
   style="fill:#000000"
   inkscape:connector-curvature="0"
   id="path61"
   d="m 1016.56,113.916 c 0,-1.1 0.06,-2.898 0.133,-3.996 0,0 1.026,-15.332 -0.884,-21.524 -1.475,-4.783 -4.597,-9.12 -8.257,-11.76 -6.737,-4.859 -28.526,-4.075 -28.526,-4.075 -1.099,0.04 -2.899,0.072 -3.999,0.072 h -60.803 c -1.1,0 -2.881,0.184 -3.958,0.408 l -2.089,0.435 c -1.077,0.224 -2.726,0.877 -3.664,1.451 0,0 -7.285,4.453 -9.803,8.715 -3.401,5.757 -2.82,22.771 -2.82,22.771 0.037,1.099 0.068,2.899 0.068,3.999 v 49.294 c 0,1.1 -0.025,2.9 -0.055,3.999 0,0 -0.409,14.878 1.806,20.019 6.351,14.735 38.285,13.112 38.285,13.112 1.099,-0.056 2.897,-0.102 3.997,-0.102 h 36.033 c 1.1,0 2.896,0.083 3.992,0.184 0,0 23.654,2.18 33.287,-5.438 7.656,-6.054 7.287,-29.526 7.287,-29.526 -0.017,-1.1 -0.031,-2.9 -0.031,-4 v -44.038 z m -39.282,27.274 c -9.757,5.337 -19.517,10.676 -29.274,16.013 -3.18,1.733 -9.386,4.053 -9.386,4.053 -1.03,0.385 -1.961,-0.195 -2.068,-1.29 0,0 -0.806,-8.255 -0.806,-13.022 0,-11.091 0.465,-37.533 0.465,-37.533 0.019,-1.1 0.185,-2.112 0.369,-2.25 0.184,-0.138 1.487,-0.129 2.489,0.324 0,0 7.641,3.457 11.439,5.681 11.508,6.254 32.771,17.81 32.771,17.81 0.966,0.525 1.317,1.74 0.778,2.699 0,10e-4 -3.136,5.589 -6.777,7.515 z" />
				<path
   style="fill:#000000"
   inkscape:connector-curvature="0"
   id="path63"
   d="m 1016.56,113.916 c 0,-1.1 0.06,-2.898 0.133,-3.996 0,0 1.026,-15.332 -0.884,-21.524 -1.475,-4.783 -4.597,-9.12 -8.257,-11.76 -6.737,-4.859 -28.526,-4.075 -28.526,-4.075 -1.099,0.04 -2.899,0.072 -3.999,0.072 h -60.803 c -1.1,0 -2.881,0.184 -3.958,0.408 l -2.089,0.435 c -1.077,0.224 -2.726,0.877 -3.664,1.451 0,0 -7.285,4.453 -9.803,8.715 -3.401,5.757 -2.82,22.771 -2.82,22.771 0.037,1.099 0.068,2.899 0.068,3.999 v 49.294 c 0,1.1 -0.025,2.9 -0.055,3.999 0,0 -0.409,14.878 1.806,20.019 6.351,14.735 38.285,13.112 38.285,13.112 1.099,-0.056 2.897,-0.102 3.997,-0.102 h 36.033 c 1.1,0 2.896,0.083 3.992,0.184 0,0 23.654,2.18 33.287,-5.438 7.656,-6.054 7.287,-29.526 7.287,-29.526 -0.017,-1.1 -0.031,-2.9 -0.031,-4 v -44.038 z m -39.282,27.274 c -9.757,5.337 -19.517,10.676 -29.274,16.013 -3.18,1.733 -9.386,4.053 -9.386,4.053 -1.03,0.385 -1.961,-0.195 -2.068,-1.29 0,0 -0.806,-8.255 -0.806,-13.022 0,-11.091 0.465,-37.533 0.465,-37.533 0.019,-1.1 0.185,-2.112 0.369,-2.25 0.184,-0.138 1.487,-0.129 2.489,0.324 0,0 7.641,3.457 11.439,5.681 11.508,6.254 32.771,17.81 32.771,17.81 0.966,0.525 1.317,1.74 0.778,2.699 0,10e-4 -3.136,5.589 -6.777,7.515 z" />
			</g>
		</g>
	</g>
<circle
   style="fill:#ffffff;fill-opacity:1"
   id="circle72"
   r="115.714"
   cy="155.51154"
   cx="435.67795" /><path
   style="clip-rule:evenodd;fill:#000000;fill-rule:evenodd"
   inkscape:connector-curvature="0"
   id="path74"
   d="m 439.92297,136.83253 c 0.163,-2.948 -0.115,-7.105 1.009,-10.39 3.644,-10.646 10.755,-17.276 20.775,-19.569 5.264,-1.205 14.16,-1.09 19.585,1.989 4.163,2.363 7.495,5.422 10.259,8.853 4.167,0.532 10.891,-1.248 14.193,-2.473 1.496,-0.552 2.993,-1.105 4.489,-1.657 -0.024,0.174 -0.047,0.349 -0.071,0.523 -3.58,6.342 -7.952,10.295 -14.06,13.284 4.231,-0.135 8.484,-0.188 12.279,-1.133 1.288,-0.321 2.681,-0.933 4.138,-1.038 -0.006,0.044 -0.012,0.087 -0.018,0.131 -3.043,4.21 -11.026,10.879 -15.952,12.495 -0.873,12.217 -5.369,22.213 -9.378,30.842 -7.658,16.483 -23.662,30.434 -39.102,36.806 -6.313,2.605 -13.144,4.004 -20.334,5.505 -15.996,3.338 -41.941,-3.453 -52.74,-11.015 -2.498,-1.749 -10.059,-5.438 -10.925,-7.877 0.654,0.089 1.309,0.177 1.963,0.266 0.768,0.911 10.081,1.692 11.776,1.597 11.669,-0.654 20.734,-2.928 29.039,-7.789 0.006,-0.044 0.012,-0.087 0.018,-0.131 -11.132,-0.58 -23.462,-13.835 -23.395,-23.026 0.349,0.047 0.698,0.095 1.047,0.142 2.844,1.395 8.71,1.93 11.455,1.02 -2.135,-0.372 -3.802,-1.651 -5.247,-2.577 -8.838,-5.659 -15.165,-14.536 -13.218,-28.309 2.438,1.012 8.28,5.784 11.987,4.956 -0.131,-0.018 -0.262,-0.035 -0.393,-0.053 -1.494,-1.757 -2.988,-3.514 -4.482,-5.271 -3.357,-6.071 -6.643,-14.974 -3.034,-24.796 1.164,-3.169 3.251,-5.511 4.311,-8.21 0.174,0.024 0.349,0.047 0.523,0.071 7.845,15.209 30,33.506 53.503,36.834 z" />

<circle
   id="circle4712"
   r="115.714"
   cy="165.71399"
   cx="716.31268"
   style="fill:#ffffff;fill-opacity:1" /><path
   class="fil1"
   d="m 680.76803,102.09613 h 71.89188 c 7.17746,0 13.68112,2.92958 18.39775,7.67549 4.74592,4.71663 7.6755,11.2203 7.6755,18.39776 v 71.89188 c 0,7.17746 -2.92958,13.68112 -7.6755,18.39775 -4.71663,4.74592 -11.22029,7.6755 -18.39775,7.6755 h -71.89188 c -7.17747,0 -13.68113,-2.92958 -18.39775,-7.6755 -4.74592,-4.71663 -7.6755,-11.22029 -7.6755,-18.39775 v -71.89188 c 0,-7.17746 2.92958,-13.68113 7.6755,-18.39776 4.71662,-4.74591 11.22028,-7.67549 18.39775,-7.67549 z m 73.85469,20.33128 c 1.4062,0 2.57803,1.17183 2.57803,2.57803 0,1.43549 -1.17183,2.57802 -2.57803,2.57802 -1.43549,0 -2.57803,-1.14253 -2.57803,-2.57802 0,-1.4062 1.14254,-2.57803 2.57803,-2.57803 z m -37.90875,7.06029 c 19.13015,0 34.62762,15.49747 34.62762,34.62762 0,19.13015 -15.49747,34.62762 -34.62762,34.62762 -19.13015,0 -34.62762,-15.49747 -34.62762,-34.62762 0,-19.13015 15.49747,-34.62762 34.62762,-34.62762 z m 29.67664,34.62762 c 0,-16.37635 -13.30029,-29.67664 -29.67664,-29.67664 -16.37635,0 -29.67664,13.30029 -29.67664,29.67664 0,16.37635 13.30029,29.67664 29.67664,29.67664 16.37635,0 29.67664,-13.30029 29.67664,-29.67664 z m 6.2693,-57.0389 h -71.89188 c -5.80057,0 -11.07381,2.37296 -14.91155,6.1814 -3.80846,3.83775 -6.18141,9.11099 -6.18141,14.91156 v 71.89188 c 0,5.80056 2.37295,11.0738 6.18141,14.91155 3.83774,3.80845 9.11098,6.18141 14.91155,6.18141 h 71.89188 c 5.80056,0 11.0738,-2.37296 14.91155,-6.18141 3.80845,-3.83775 6.18141,-9.11099 6.18141,-14.91155 v -71.89188 c 0,-5.80057 -2.37296,-11.07381 -6.18141,-14.91156 -3.83775,-3.80844 -9.11099,-6.1814 -14.91155,-6.1814 z"
   id="path9-3"
   inkscape:connector-curvature="0"
   style="clip-rule:evenodd;fill:#000000;fill-opacity:1;fill-rule:nonzero;stroke-width:0.02929579;image-rendering:optimizeQuality;shape-rendering:geometricPrecision;text-rendering:geometricPrecision" /><circle
   style="fill:#ffffff;fill-opacity:1"
   id="circle7-4"
   r="115.714"
   cy="968.22058"
   cx="165.71399" /><path
   inkscape:connector-curvature="0"
   d="m 162.53579,903.45963 c -1.03997,9.2e-4 -2.08032,0.0259 -3.10551,0.078 -1.02658,0.0517 -2.03745,0.12885 -3.01864,0.2312 -0.98115,0.10232 -1.93339,0.23155 -2.83857,0.38485 -0.90531,0.15323 -1.76408,0.33201 -2.56277,0.53612 -0.81292,0.20787 -1.61828,0.44636 -2.41139,0.71411 -0.79338,0.26774 -1.57424,0.56345 -2.34476,0.88759 -0.77061,0.32421 -1.52883,0.67693 -2.27355,1.0545 -0.74467,0.37771 -1.47771,0.7804 -2.19343,1.20791 -0.71572,0.42735 -1.41417,0.87857 -2.09779,1.35255 -0.68366,0.47392 -1.35141,0.96873 -1.99986,1.48602 -0.64831,0.51727 -1.27883,1.05765 -1.88867,1.61504 -0.61,0.55735 -1.19807,1.13218 -1.76629,1.72626 -0.56821,0.59412 -1.11602,1.20551 -1.63957,1.83303 -0.52371,0.62768 -1.02375,1.27096 -1.49933,1.92872 -0.47614,0.65777 -0.92763,1.33078 -1.35255,2.01548 -0.42495,0.6847 -0.82169,1.38279 -1.19242,2.09113 -0.37069,0.70826 -0.71438,1.42704 -1.02773,2.15558 -0.3133,0.72864 -0.59703,1.46561 -0.84982,2.21126 -0.25281,0.74565 -0.47409,1.49854 -0.6629,2.25795 -0.1887,0.75936 -0.34689,1.52594 -0.46942,2.29574 -0.0926,0.58181 -0.17319,1.41122 -0.24247,2.42033 -0.0693,1.00916 -0.12352,2.19808 -0.16699,3.49485 -0.0796,2.59352 -0.10136,5.62142 -0.0465,8.52685 0.0605,2.99843 0.12147,5.22344 0.0781,6.8383 -0.0207,0.80744 -0.0662,1.46247 -0.15148,1.98659 -0.0848,0.52411 -0.20834,0.91662 -0.38257,1.19905 -0.0869,0.14113 -0.1856,0.25643 -0.30037,0.34483 -0.11421,0.0884 -0.24246,0.15044 -0.3867,0.19387 -0.28901,0.0828 -0.64215,0.075 -1.07223,0 -0.43014,-0.075 -0.93855,-0.21972 -1.5349,-0.41152 -0.59685,-0.19128 -1.28228,-0.4322 -2.0711,-0.69846 -1.15531,-0.3898 -2.18836,-0.66268 -3.12556,-0.81425 -0.4684,-0.0761 -0.91301,-0.12297 -1.33703,-0.13542 -0.42394,-0.0206 -0.82848,0.003 -1.21463,0.0517 -0.38619,0.0465 -0.75489,0.12461 -1.11002,0.23367 -0.35517,0.10957 -0.69716,0.2497 -1.02772,0.4229 -0.33139,0.17267 -0.65032,0.3774 -0.96325,0.61397 -0.31277,0.23679 -0.6192,0.50562 -0.92091,0.80755 -0.48649,0.48596 -0.86953,0.9758 -1.15238,1.46591 -0.28227,0.49011 -0.46425,0.98047 -0.54722,1.47052 -0.0828,0.48959 -0.0646,0.98031 0.0517,1.46597 0.11586,0.48546 0.32829,0.96677 0.63848,1.44375 0.31019,0.47718 0.71872,0.94847 1.22123,1.41262 0.50251,0.46425 1.09901,0.92112 1.7908,1.36811 0.69199,0.4472 1.47947,0.88457 2.35803,1.31025 0.87851,0.426 1.84736,0.84146 2.90982,1.24134 1.25153,0.4715 2.34801,0.92324 3.28789,1.36149 0.94005,0.4379 1.72498,0.86171 2.35803,1.27024 0.63322,0.40843 1.11272,0.80201 1.4438,1.18344 0.16544,0.19025 0.29365,0.37845 0.38516,0.56279 0.0915,0.18509 0.14527,0.36603 0.16233,0.54512 0.0589,0.63145 0.0517,1.22624 -0.0532,1.85527 -0.10547,0.62892 -0.30967,1.29355 -0.64298,2.06661 -0.33346,0.773 -0.79569,1.65472 -1.42146,2.71843 -0.6255,1.06365 -1.41292,2.30985 -2.39371,3.81072 -0.61966,0.94832 -1.27075,1.86286 -1.94868,2.74289 -0.67792,0.88001 -1.38258,1.72404 -2.1134,2.53153 -0.7307,0.80748 -1.48826,1.57841 -2.26673,2.30918 -0.77843,0.73071 -1.57945,1.4212 -2.40034,2.07106 -0.82076,0.6498 -1.66056,1.25938 -2.51829,1.82414 -0.8579,0.56486 -1.73331,1.08614 -2.62279,1.56167 -0.88948,0.47563 -1.79364,0.90395 -2.70949,1.28581 -0.91605,0.38153 -1.84342,0.71654 -2.78072,1.00104 -1.423379,0.43219 -2.507659,0.76669 -3.336909,1.06116 -0.82898,0.29418 -1.40342,0.54996 -1.8063,0.81866 -0.20163,0.1345 -0.36087,0.2714 -0.48752,0.4208 -0.12666,0.1489 -0.2218,0.3097 -0.29365,0.487 -0.14528,0.3557 -0.20111,0.7828 -0.25592,1.337 -0.0465,0.4694 -0.0109,0.9262 0.10437,1.3725 0.11586,0.4462 0.31278,0.8803 0.5873,1.3014 0.27453,0.4213 0.62746,0.83 1.05673,1.2235 0.4291,0.3934 0.93455,0.7712 1.51483,1.1345 0.58042,0.3635 1.23436,0.7102 1.96217,1.0412 0.727669,0.3308 1.528839,0.647 2.400279,0.9432 0.87144,0.2962 1.81386,0.5745 2.82528,0.8342 1.0115,0.2595 2.09117,0.4984 3.23889,0.7185 1.11711,0.2146 2.18061,0.4876 2.9943,0.7542 0.40686,0.1328 0.75252,0.2647 1.01003,0.3867 0.25746,0.1225 0.42704,0.2337 0.48494,0.3293 0.11736,0.1897 0.30554,0.7259 0.51389,1.4371 0.20834,0.7111 0.43944,1.5981 0.63848,2.487 0.11627,0.5202 0.23317,0.9849 0.3624,1.3971 0.12927,0.412 0.27039,0.7711 0.42756,1.0834 0.15768,0.3122 0.33293,0.5779 0.53394,0.7986 0.20111,0.2212 0.42704,0.3965 0.6874,0.5339 0.26055,0.137 0.55627,0.2358 0.89205,0.2978 0.33552,0.063 0.71232,0.087 1.13898,0.082 0.85277,0 1.90081,-0.1432 3.20998,-0.3717 1.11758,-0.1944 2.18036,-0.3505 3.1968,-0.4627 1.01656,-0.1122 1.98751,-0.182 2.92083,-0.2094 0.93317,-0.026 1.8284,0 2.69621,0.052 0.86767,0.062 1.70917,0.169 2.52932,0.3226 0.82004,0.1541 1.61885,0.3557 2.40932,0.6051 0.79022,0.2492 1.57067,0.546 2.34909,0.8943 0.77843,0.3479 1.55614,0.7463 2.3402,1.1968 0.78428,0.4503 1.57465,0.9545 2.38255,1.5105 1.55639,1.0712 2.84907,1.9463 3.96421,2.6762 1.11531,0.7297 2.0527,1.3141 2.90305,1.8041 0.85039,0.4895 1.61404,0.885 2.37593,1.2368 0.76172,0.3515 1.52181,0.6592 2.37137,0.9744 v -0.01 c 0.65156,0.242 1.24501,0.4327 1.85977,0.5807 0.61463,0.1478 1.25049,0.2538 1.99102,0.3226 0.74063,0.069 1.58622,0.1002 2.61602,0.1043 1.02973,0 2.24435,-0.021 3.72619,-0.061 1.61601,-0.047 2.88744,-0.096 3.93526,-0.1644 1.04779,-0.069 1.87176,-0.1587 2.59839,-0.2936 0.72658,-0.1354 1.35621,-0.3169 2.00876,-0.5651 0.6526,-0.2487 1.32789,-0.5648 2.15346,-0.9721 0.99469,-0.4907 2.50554,-1.3407 4.13539,-2.3158 1.62992,-0.9751 3.38019,-2.0745 4.85845,-3.0632 1.47813,-0.9888 3.07082,-1.9574 4.44699,-2.7208 0.68801,-0.3815 1.32189,-0.7114 1.85971,-0.9676 0.53803,-0.2564 0.98109,-0.4379 1.2859,-0.5228 0.73294,-0.2032 1.64051,-0.3557 2.67174,-0.454 1.03125,-0.098 2.18599,-0.1432 3.41022,-0.1375 1.22418,0 2.51909,0.063 3.83073,0.1737 1.31155,0.1107 2.63949,0.2735 3.93304,0.4876 1.04308,0.1721 1.82647,0.3014 2.43595,0.3737 0.60933,0.072 1.04561,0.086 1.39251,0.031 0.3469,-0.055 0.60524,-0.1788 0.86094,-0.3867 0.25539,-0.2088 0.50768,-0.502 0.84311,-0.892 0.18509,-0.2156 0.37274,-0.4958 0.55395,-0.8187 0.18095,-0.3231 0.35776,-0.6881 0.51595,-1.0723 0.31693,-0.7682 0.56916,-1.6117 0.67851,-2.3469 0.11066,-0.7351 0.27347,-1.4448 0.44926,-1.9932 0.17629,-0.5483 0.36396,-0.9353 0.5205,-1.0322 0.15717,-0.097 0.76784,-0.2828 1.6263,-0.5025 0.8584,-0.2208 1.96403,-0.4746 3.10984,-0.7119 1.09973,-0.2274 2.13469,-0.4709 3.10343,-0.7296 0.96877,-0.2585 1.87118,-0.5325 2.70726,-0.821 0.83586,-0.2884 1.60551,-0.5907 2.30691,-0.9075 0.70123,-0.317 1.33506,-0.6478 1.89977,-0.9922 0.56486,-0.3443 1.06163,-0.7016 1.48825,-1.0722 0.42652,-0.3707 0.78153,-0.7563 1.06775,-1.1523 0.28589,-0.3961 0.50303,-0.8039 0.64742,-1.2236 0.14475,-0.4198 0.2161,-0.852 0.2161,-1.2947 0,-0.584 -0.0465,-1.0603 -0.17371,-1.4616 -0.0641,-0.2006 -0.14785,-0.3816 -0.2559,-0.5473 -0.10861,-0.1659 -0.24247,-0.3174 -0.40481,-0.456 -0.32466,-0.2776 -0.76633,-0.50816 -1.35704,-0.72074 -0.59076,-0.21301 -1.3317,-0.40842 -2.2579,-0.6162 -1.12667,-0.25281 -2.2676,-0.60576 -3.41481,-1.05223 -1.14703,-0.44616 -2.29972,-0.98579 -3.44361,-1.60614 -1.14399,-0.62032 -2.27966,-1.32141 -3.39692,-2.09555 -1.11722,-0.77419 -2.21452,-1.62159 -3.28128,-2.52936 -1.06696,-0.90784 -2.10368,-1.87719 -3.09656,-2.89861 -0.99282,-1.02141 -1.94335,-2.0952 -2.83856,-3.21008 -0.89512,-1.11489 -1.73533,-2.27104 -2.50942,-3.45922 -0.77383,-1.18825 -1.48189,-2.40675 -2.11113,-3.64829 -0.34327,-0.67804 -0.62778,-1.31181 -0.85421,-1.90427 -0.22696,-0.59237 -0.39601,-1.14369 -0.50045,-1.65954 -0.10656,-0.51596 -0.14837,-0.99535 -0.13132,-1.4438 0.0207,-0.44822 0.0988,-0.86683 0.24454,-1.25685 0.1458,-0.38981 0.35776,-0.75169 0.63399,-1.09229 0.27658,-0.34018 0.61934,-0.65829 1.02993,-0.95875 0.41102,-0.30037 0.88876,-0.58301 1.43708,-0.85206 0.54833,-0.26883 1.16597,-0.52526 1.85532,-0.77197 1.26336,-0.45235 2.45027,-0.9192 3.53708,-1.38811 1.08671,-0.4689 2.0738,-0.93916 2.94089,-1.40144 0.86735,-0.46219 1.61326,-0.91534 2.21794,-1.3481 0.60481,-0.43325 1.06897,-0.84518 1.36815,-1.22574 0.27452,-0.34845 0.4989,-0.70951 0.67406,-1.07672 0.17525,-0.36707 0.30087,-0.74044 0.3805,-1.1167 0.0787,-0.37585 0.10655,-0.75471 0.093,-1.13009 -0.0155,-0.37533 -0.076,-0.7472 -0.18043,-1.11226 -0.10492,-0.36498 -0.25332,-0.72264 -0.4472,-1.06783 -0.19335,-0.34535 -0.43116,-0.67886 -0.70957,-0.99437 -0.27864,-0.31588 -0.59996,-0.61346 -0.96107,-0.88984 -0.36086,-0.27712 -0.76267,-0.53261 -1.20345,-0.76081 -0.57567,-0.29778 -1.13742,-0.5144 -1.72183,-0.6514 -0.5843,-0.13803 -1.19125,-0.19491 -1.85309,-0.16906 -0.66191,0.0259 -1.37886,0.13282 -2.18676,0.32519 -0.80791,0.19129 -1.7069,0.46581 -2.72959,0.8249 -0.70947,0.2492 -1.32506,0.47977 -1.85977,0.66072 -0.53482,0.18094 -0.98765,0.31484 -1.37256,0.37378 -0.38412,0.059 -0.69963,0.0413 -0.9588,-0.0761 -0.12926,-0.0589 -0.2466,-0.1427 -0.34897,-0.25539 -0.10286,-0.11367 -0.1918,-0.25488 -0.27141,-0.42962 -0.15821,-0.34845 -0.27195,-0.82744 -0.35362,-1.46117 -0.0811,-0.63357 -0.13187,-1.42275 -0.16234,-2.39583 -0.0599,-1.94615 -0.0465,-4.62389 -0.0465,-8.2532 -0.005,-2.84918 -0.0155,-5.09084 -0.0465,-6.90061 -0.031,-1.80987 -0.0811,-3.18833 -0.16905,-4.31572 -0.0874,-1.12745 -0.21094,-2.00312 -0.38258,-2.80518 -0.17215,-0.80206 -0.39394,-1.53101 -0.67849,-2.36471 -0.46217,-1.3558 -1.01587,-2.68012 -1.65502,-3.96416 -0.63931,-1.28421 -1.36222,-2.52869 -2.1624,-3.72619 -0.79989,-1.19755 -1.67825,-2.34771 -2.62275,-3.44372 -0.94432,-1.09591 -1.9553,-2.13717 -3.02758,-3.11662 -1.07224,-0.97943 -2.20418,-1.89735 -3.38804,-2.7451 -1.18385,-0.84786 -2.42033,-1.62565 -3.69946,-2.32692 -1.27883,-0.70151 -2.60004,-1.32469 -3.9576,-1.86436 -1.35767,-0.5397 -2.75121,-0.99594 -4.17112,-1.35924 -0.79554,-0.20198 -1.65312,-0.37797 -2.55599,-0.52948 -0.90286,-0.15137 -1.84989,-0.27989 -2.82964,-0.38055 -0.97953,-0.10081 -1.99071,-0.17469 -3.01653,-0.22489 -1.02425,-0.0521 -2.06541,-0.0741 -3.10554,-0.0732 h -0.003 z"
   style="fill:#000000;fill-opacity:1;fill-rule:nonzero;stroke:none;stroke-width:3.48070359;stroke-miterlimit:4;stroke-dasharray:none;stroke-opacity:0.52678653"
   id="rect1669" /><circle
   style="fill:#ffffff;fill-opacity:1"
   id="circle7-4-0"
   r="115.714"
   cy="964.62189"
   cx="712.71399" /><path
   id="path1211"
   d="m 676.5111,895.26169 -28.55982,30.43875 -0.75153,99.20776 h 34.94817 l -0.37566,28.9356 27.05666,-28.9356 22.92305,1.1273 51.48278,-52.61014 0.75158,-77.78791 z m 96.04589,12.49214 v 62.75641 l -22.923,21.79566 -21.79565,-0.37566 -19.91674,20.29246 v -20.29246 l -25.17769,0.75158 -0.37566,-84.55207 z"
   style="fill:#000000;fill-opacity:1;stroke:none;stroke-width:0.71399295;stroke-linecap:butt;stroke-linejoin:miter;stroke-miterlimit:4;stroke-dasharray:none;stroke-opacity:1"
   inkscape:connector-curvature="0" /><path
   id="path1213"
   d="m 713.06054,924.59863 0.26563,34.27807 h 11.69178 v -34.27807 z"
   style="fill:#4d4d4d;fill-opacity:1;stroke:none;stroke-width:0.65762836;stroke-linecap:butt;stroke-linejoin:miter;stroke-miterlimit:4;stroke-dasharray:none;stroke-opacity:1"
   inkscape:connector-curvature="0" /><path
   id="path1215"
   d="m 743.61859,924.86436 0.26563,34.27807 h 11.95751 c 0,0 0.81018,-34.49518 0,-34.27807 -0.81023,0.217 -12.22319,0 -12.22319,0 z"
   style="fill:#4d4d4d;fill-opacity:1;stroke:none;stroke-width:0.65762836;stroke-linecap:butt;stroke-linejoin:miter;stroke-miterlimit:4;stroke-dasharray:none;stroke-opacity:1"
   inkscape:connector-curvature="0" /><circle
   style="fill:#ffffff;fill-opacity:1"
   id="circle7-4-8"
   r="115.714"
   cy="968.22064"
   cx="435.6153" /><path
   inkscape:connector-curvature="0"
   d="m 445.57287,909.68931 -11.97717,38.05487 0.51129,0.0259 a 67.666382,43.345462 0 0 0 -46.23945,12.64973 16.346774,14.945621 0 0 0 -2.78487,-1.83009 16.346774,14.945621 0 0 0 -22.28075,5.61812 l -0.0207,0.0207 a 16.346774,14.945621 0 0 0 5.99294,20.26543 67.666382,43.345462 0 0 0 33.51496,44.27273 67.666382,43.345462 0 0 0 92.21444,-16.3385 67.666382,43.345462 0 0 0 8.05014,-27.70712 16.346774,14.945621 0 0 0 6.44943,-5.7593 16.346774,14.945621 0 0 0 -6.15176,-20.3691 16.346774,14.945621 0 0 0 -19.14098,2.01316 67.666382,43.345462 0 0 0 -14.67813,-7.25423 67.666382,43.345462 0 0 0 -30.30014,-5.60059 67.666382,43.345462 0 0 0 -0.83127,-0.0155 l 10.25949,-33.34732 c 0,0 28.89434,6.10766 30.06863,6.10766 0.16647,0 0.31277,-0.077 0.44305,-0.19801 a 11.878261,11.878261 0 0 0 5.91595,11.8956 11.878261,11.878261 0 0 0 16.18641,-4.47816 11.878261,11.878261 0 0 0 -4.47175,-16.18865 11.878261,11.878261 0 0 0 -16.19074,4.46496 l -0.0109,0.016 a 11.878261,11.878261 0 0 0 -0.47557,0.96137 z m -35.60294,65.03656 a 11.070645,11.531921 0 0 1 0.5886,0.0109 l 0.005,0.003 a 11.070645,11.531921 0 0 1 4.95668,1.49053 11.070645,11.531921 0 0 1 4.16728,15.71677 11.070645,11.531921 0 0 1 -15.08608,4.34813 11.070645,11.531921 0 0 1 -4.17836,-15.71454 v -0.0155 a 11.070645,11.531921 0 0 1 9.54299,-5.83645 z m 53.05715,0.0155 a 11.070645,11.531921 0 0 1 0.5887,0.0109 l 0.005,0.001 a 11.070645,11.531921 0 0 1 4.95659,1.48841 11.070645,11.531921 0 0 1 4.16728,15.71671 11.070645,11.531921 0 0 1 -15.08593,4.34809 11.070645,11.531921 0 0 1 -4.1784,-15.71232 v -0.0154 a 11.070645,11.531921 0 0 1 9.54288,-5.8365 z m 0.63723,36.77383 c 1.65169,0.1116 3.78896,2.4849 2.67016,4.0107 -9.09993,12.4096 -42.26698,15.6262 -59.04357,0.6924 -1.29092,-1.1492 1.20339,-6.1315 3.92043,-3.6889 10.4808,9.4222 35.1331,13.8612 51.43204,-0.6923 0.28331,-0.2528 0.63972,-0.3479 1.02094,-0.3221 z"
   style="fill:#000000;fill-opacity:1;fill-rule:nonzero;stroke:none;stroke-width:3.44995284;stroke-miterlimit:4;stroke-dasharray:none;stroke-opacity:0.52678653"
   id="rect1698" /><circle
   style="fill:#ffffff;fill-opacity:1"
   id="circle7-4-1"
   r="115.714"
   cy="968.22058"
   cx="964.62189" /><path
   inkscape:connector-curvature="0"
   sodipodi:nodetypes="cccccszccssc"
   id="path1388"
   d="m 970.38014,893.95414 25.52682,-0.7854 c 3.62947,16.03099 5.08964,36.53026 37.70114,36.52297 l 0.3929,26.31224 c -10.4776,1.00817 -21.722,1.27919 -37.30848,-10.99615 l -0.78545,60.0861 c -0.59914,45.8313 -82.16526,59.9622 -95.03827,11.7817 -12.87308,-48.18045 23.28258,-69.27085 51.4463,-67.54789 l 1.17817,27.88317 c -28.98844,-1.36765 -31.95408,25.22772 -23.56321,37.30832 7.58609,10.922 38.99382,12.4479 39.27201,-12.9597 z"
   style="fill:#000000;fill-opacity:1;stroke:none;stroke-width:0.97193342;stroke-linecap:butt;stroke-linejoin:miter;stroke-miterlimit:4;stroke-dasharray:none;stroke-opacity:1" /></svg>