<?xml version="1.0" encoding="UTF-8"?>
<svg viewBox="0 0 492.94467 597.78601" xmlns="http://www.w3.org/2000/svg">
 <path d="m249.22 0.34375c-38.326 0.06241-77.385 8.5513-111.94 24.188-44.769 22.015-73.825 57.148-89.438 99.219l-13.062 8.125c-7.0979 4.4241-11.973 14.673-10.906 22.969l15.406 119.78c0.41209 3.204 1.6696 5.6335 3.4375 7.1562 0.39091 1.6749 0.80316 3.3564 1.2188 5.0312-4.9487 13.131-14.19 19.074-23.031 25.719l1.0625 3.7812c24.43 5.1165 49.041 7.4197 73.781 7.25 1.8681 3.09 3.375 5.4375 3.375 5.4375l10.906 17.812c0.9866 22.666 2.4288 23.458-3.9375 36.5-1.1222 2.2991-10.13-7.7789-11.375-5.5938-7.3879 12.965-7.858 44.699-22.406 65.719-21.003 28.218-41.997 62.63-63 96.625-6.0648 11.831-8.8659 26.925-8.9688 44.719 53.005-21.82 95.307-80.909 196.44 0 40.375 17.32 80.75 16.408 121.12 0-10.124-22.249-22.659-46.116-28.625-65.594 2.8743-4.636 6.7638-9.5626 12.156-15.188v-21.875l4.5938-7.0938 3.1562 7.9375c12.35 2.9599 24.712-3.0328 37.062-8.2188l-5.9375-20.469c21.971 7.0768 38.296 14.106 63.75 11.906 9.8795-1.9206 9.4335-3.4606 16.312-8.375 6.5515-5.8267 13.535-12.689 10.906-24.875l-8.5312-29.281c2.3473-5.2688 4.6689-10.565 7.8125-15.438 13.728 7.2458 29.129 15.724 42.688 16.125l2.4062-4.2188c-17.504-12.596-30.412-19.319-48.969-24.375l1.5625-0.90625 6.4688-4.8125c-4.3002-7.488-9.5882-9.2735-6.875-29.969l27.344-7.6875c6.4888-3.0043 8.757-13.108 6.8125-22.438l-42.656-60.094 8.5-13.875-2.0938-7.0938c20.767 1.4627 41.735-3.8588 63.281-14.625l3.5625-4.625c-15.528-2.8928-30.712-6.4718-42.469-16.906 2.0924-31.196-12.419-52.779-20.062-75.844-27.001-81.471-102.37-116.66-180.84-116.53zm-72.906 70.375c0.81257 1.0914 2.0194 1.6507 3.0625 2.4062 7.0215 0.98159-1.1404 11.144 6.125 9.0312 7.889 5.7124 17.205 10.154 23.219 18.719 4.7182 5.4035 8.8122 10.707 11.281 17.812 4.1084 5.6421 1.8548 13.638 4.5 20.094 1.9412 8.3243 1.4432 17.694-0.375 26.281-0.03357 10.088-5.4485 19.017-9 28.094-5.5484 8.4249-12.119 16.092-19.281 22.812-5.9308 1.3259-5.8708 8.2978-11.031 10.531-4.514-2.6268-7.8155-0.18692-12.906 1.25-6.8592 2.9095-13.645 2.3814-20.531 2.4375-1.2728 4.2229-3.5867 7.1794-8.2188 5.9062-7.6739 0.16188-3.0399-9.9049-9.375-10.719-6.2601-2.0873-11.453-5.45-16-10.781-2.5917-6.9676-11.353-1.9885-11.812-10.312 0.97695-7.2168-4.872-11.948-6.4375-18.438-2.0998-8.8317-4.3903-17.867-4-27-1.3761-9.525 2.9068-18.75 4.0625-27.969 4.8913-9.4933 9.3887-19.595 16.344-27.5 12.046-14.604 29.426-22.827 46.562-23.844 6.9715 4.5444 7.3483-9.4082 13.781-7.2812l0.03125-1.5312zm-8.9062 20.062c-1.6605 0.69691-3.4264 0.93027-5.1562 1.125-6.5759 0.01414-13.02 1.3384-19.219 4.25-6.734 2.9066-13.211 6.8099-17.562 13.625-5.5194 4.694-9.4696 11.318-13.25 17.781-2.6661 8.5673-5.2341 17.33-6.4375 26.219 0.34162 9.7713 0.99052 19.905 4.5625 28.781 0.61091 9.0802 7.5414 7.6013 11.062 0.84375 11.443-10.628 23.42-20.736 33.344-33.281 5.3002-11.32 5.0761-24.135 8.0625-36.125 1.5429-7.2979 3.3099-14.657 4.4062-22.062l0.1875-1.1562zm11.969 2.0312 0.125 1.2812c-2.5729 0.19335-1.3414 10.59-3.5938 14.156-1.4022 8.8231-3.9861 17.403-5.5312 26.188 0.29721 8.0311-5.3105 15.096-4.6875 23.188 2.4587 8.6419 5.2421 17.227 9.3438 24.938 3.3324 5.8841 5.7955 11.95 8.5312 18.281 1.033 7.8638 6.4815 6.563 10.25 0.9375 6.2795-6.1746 11.279-13.793 15.344-21.938 2.4053-7.9544 5.6621-16.222 5.1875-24.656 2.5948-10.393-0.66324-20.726-3.5312-30.25-4.0522-6.5231-6.9887-14.491-13.219-18.938-5.2859-5.3309-12.181-8.6021-18.219-13.188zm-29.469 81.281c-0.01845 0.23064-0.0387 0.45799-0.0625 0.6875l0.1875-0.25-0.125-0.4375zm-0.0625 0.6875-0.625 0.78125-0.875 0.9375c-5.7038 4.2399-11.934 7.3872-16.656 13.188-2.0012 4.6622-16.052 9.546-8.4062 13.25 4.7604 5.4112 10.771 8.8406 16.844 12.375 1.5795-1.0647 2.2862-10.524 3.9375-14.812 0.13477-8.9207 4.8684-16.915 5.7812-25.719zm11.5 6c-0.1175 0.02061-0.28931 0.08627-0.5 0.21875h-0.3125c0.18675 0.51811 0.39429 1.0212 0.59375 1.5312 0.3445-0.76244 0.79964-1.8519 0.21875-1.75zm-0.21875 1.7812c-0.13839 0.30518-0.28541 0.5729-0.3125 0.65625-2.8621 8.8663-3.8354 18.542-5.8438 27.781-4.6501 10.499 7.579 6.009 12.719 5.9688 7.1854 0.66054 8.6189-6.2384 5.1562-11.969-3.9515-7.3924-8.5918-14.452-11.719-22.438z" fill-rule="evenodd" stroke="#000" stroke-width=".70008"/>
</svg>
